<svg width="243" height="89" viewBox="0 0 243 89" fill="none" xmlns="http://www.w3.org/2000/svg">
<rect width="242.138" height="88.1219" rx="13.3014" fill="#090909"/>
<path d="M55.5018 45.3966C55.5496 41.6735 57.5413 38.1506 60.7009 36.2005C58.7076 33.3426 55.369 31.5307 51.8955 31.4216C48.1907 31.0312 44.5991 33.6471 42.7112 33.6471C40.7868 33.6471 37.8801 31.4603 34.7501 31.525C30.6702 31.6573 26.8668 33.986 24.8818 37.5668C20.615 44.983 23.7977 55.8823 27.8849 61.877C29.9299 64.8124 32.3198 68.0913 35.447 67.9751C38.5072 67.8476 39.6501 66.0161 43.344 66.0161C47.0036 66.0161 48.0759 67.9751 51.2665 67.9011C54.5502 67.8476 56.6191 64.9526 58.5923 61.9894C60.0616 59.8978 61.1922 57.5862 61.9423 55.14C58.0833 53.5015 55.5063 49.6029 55.5018 45.3966Z" fill="white"/>
<path d="M49.4751 27.4792C51.2656 25.3215 52.1476 22.5481 51.934 19.748C49.1987 20.0365 46.672 21.3489 44.8574 23.4238C43.083 25.4511 42.1595 28.1757 42.3341 30.8687C45.0704 30.897 47.7605 29.6202 49.4751 27.4792Z" fill="white"/>
<path d="M164.649 41.5512V46.0628H161.832V49.0215H164.649V59.0746C164.649 62.5074 166.196 63.8805 170.088 63.8805C170.772 63.8805 171.423 63.7987 171.993 63.7007V60.7746C171.504 60.8237 171.195 60.8564 170.658 60.8564C168.915 60.8564 168.15 60.0391 168.15 58.1756V49.0215H171.993V46.0628H168.15V41.5512H164.649Z" fill="white"/>
<path d="M181.906 64.1257C187.084 64.1257 190.26 60.6439 190.26 54.8736C190.26 49.136 187.068 45.6378 181.906 45.6378C176.728 45.6378 173.537 49.136 173.537 54.8736C173.537 60.6439 176.712 64.1257 181.906 64.1257ZM181.906 61.0035C178.862 61.0035 177.152 58.764 177.152 54.8736C177.152 51.0158 178.862 48.76 181.906 48.76C184.935 48.76 186.661 51.0158 186.661 54.8736C186.661 58.7477 184.935 61.0035 181.906 61.0035Z" fill="white"/>
<path d="M192.976 63.7824H196.477V53.2716C196.477 50.7706 198.35 49.0869 201.004 49.0869C201.622 49.0869 202.665 49.2014 202.958 49.2994V45.834C202.583 45.7359 201.915 45.6869 201.394 45.6869C199.082 45.6869 197.112 46.9619 196.607 48.711H196.347V45.9811H192.976V63.7824Z" fill="white"/>
<path d="M211.65 48.6292C214.239 48.6292 215.932 50.4437 216.014 53.2389H207.058C207.254 50.46 209.061 48.6292 211.65 48.6292ZM215.998 58.9765C215.346 60.366 213.897 61.1343 211.78 61.1343C208.98 61.1343 207.172 59.1563 207.058 56.0342V55.838H219.58V54.612C219.58 49.0215 216.6 45.6378 211.666 45.6378C206.667 45.6378 203.492 49.2504 203.492 54.939C203.492 60.6275 206.602 64.1257 211.683 64.1257C215.737 64.1257 218.57 62.1641 219.368 58.9765H215.998Z" fill="white"/>
<path d="M141.691 57.2087C141.961 61.5798 145.59 64.3754 150.99 64.3754C156.762 64.3754 160.374 61.4443 160.374 56.7681C160.374 53.0916 158.315 51.0585 153.319 49.8894L150.636 49.2287C147.463 48.4832 146.181 47.4836 146.181 45.7385C146.181 43.536 148.172 42.0958 151.159 42.0958C153.994 42.0958 155.952 43.5021 156.307 45.7555H159.986C159.766 41.6384 156.155 38.7412 151.21 38.7412C145.894 38.7412 142.35 41.6384 142.35 45.9926C142.35 49.5845 144.358 51.7192 148.763 52.7527L151.902 53.5152C155.125 54.2776 156.543 55.3958 156.543 57.2595C156.543 59.4281 154.315 61.0038 151.277 61.0038C148.02 61.0038 145.759 59.5298 145.438 57.2087H141.691Z" fill="white"/>
<path d="M105.426 45.6869C103.017 45.6869 100.932 46.8965 99.8576 48.9235H99.5971V45.9811H96.2265V69.6998H99.7274V61.0852H100.004C100.932 62.9651 102.935 64.0766 105.459 64.0766C109.937 64.0766 112.786 60.5294 112.786 54.8736C112.786 49.2177 109.937 45.6869 105.426 45.6869ZM104.433 60.9218C101.502 60.9218 99.6622 58.6006 99.6622 54.8899C99.6622 51.1629 101.502 48.8417 104.449 48.8417C107.413 48.8417 109.188 51.1139 109.188 54.8736C109.188 58.6496 107.413 60.9218 104.433 60.9218Z" fill="white"/>
<path d="M125.036 45.6869C122.626 45.6869 120.542 46.8965 119.467 48.9235H119.207V45.9811H115.836V69.6998H119.337V61.0852H119.614C120.542 62.9651 122.545 64.0766 125.069 64.0766C129.547 64.0766 132.396 60.5294 132.396 54.8736C132.396 49.2177 129.547 45.6869 125.036 45.6869ZM124.043 60.9218C121.112 60.9218 119.272 58.6006 119.272 54.8899C119.272 51.1629 121.112 48.8417 124.059 48.8417C127.023 48.8417 128.798 51.1139 128.798 54.8736C128.798 58.6496 127.023 60.9218 124.043 60.9218Z" fill="white"/>
<path d="M89.9455 63.7824H93.9621L85.1693 39.3342H81.102L72.3093 63.7824H76.1909L78.4355 57.2934H87.7177L89.9455 63.7824ZM82.9416 43.7732H83.2285L86.7558 54.1082H79.3975L82.9416 43.7732Z" fill="white"/>
<path d="M72.2122 22.0897V31.7535H75.6877C78.5562 31.7535 80.2173 29.9788 80.2173 26.8915C80.2173 23.851 78.5429 22.0897 75.6877 22.0897H72.2122ZM73.7064 23.4559H75.5209C77.5156 23.4559 78.6963 24.7284 78.6963 26.9116C78.6963 29.1283 77.5356 30.3873 75.5209 30.3873H73.7064V23.4559Z" fill="white"/>
<path d="M85.3045 31.8941C87.4259 31.8941 88.7267 30.4677 88.7267 28.1036C88.7267 25.753 87.4192 24.3198 85.3045 24.3198C83.1832 24.3198 81.8757 25.753 81.8757 28.1036C81.8757 30.4677 83.1765 31.8941 85.3045 31.8941ZM85.3045 30.615C84.0571 30.615 83.3566 29.6975 83.3566 28.1036C83.3566 26.5231 84.0571 25.599 85.3045 25.599C86.5453 25.599 87.2525 26.5231 87.2525 28.1036C87.2525 29.6908 86.5453 30.615 85.3045 30.615Z" fill="white"/>
<path d="M99.8045 24.4605H98.3703L97.0761 30.0257H96.9627L95.4684 24.4605H94.0942L92.5999 30.0257H92.4932L91.1923 24.4605H89.7381L91.7393 31.7535H93.2136L94.7079 26.3825H94.8213L96.3223 31.7535H97.8099L99.8045 24.4605Z" fill="white"/>
<path d="M101.456 31.7535H102.89V27.4875C102.89 26.349 103.564 25.6391 104.625 25.6391C105.686 25.6391 106.193 26.2218 106.193 27.3938V31.7535H107.627V27.0321C107.627 25.2976 106.733 24.3198 105.112 24.3198C104.018 24.3198 103.297 24.8087 102.944 25.6191H102.837V24.4605H101.456V31.7535Z" fill="white"/>
<path d="M109.886 31.7535H111.32V21.6143H109.886V31.7535Z" fill="white"/>
<path d="M116.714 31.8941C118.835 31.8941 120.136 30.4677 120.136 28.1036C120.136 25.753 118.829 24.3198 116.714 24.3198C114.593 24.3198 113.285 25.753 113.285 28.1036C113.285 30.4677 114.586 31.8941 116.714 31.8941ZM116.714 30.615C115.467 30.615 114.766 29.6975 114.766 28.1036C114.766 26.5231 115.467 25.599 116.714 25.599C117.955 25.599 118.662 26.5231 118.662 28.1036C118.662 29.6908 117.955 30.615 116.714 30.615Z" fill="white"/>
<path d="M124.41 30.6619C123.629 30.6619 123.062 30.2801 123.062 29.6238C123.062 28.9809 123.516 28.6394 124.516 28.5724L126.291 28.4586V29.068C126.291 29.9721 125.49 30.6619 124.41 30.6619ZM124.043 31.874C124.997 31.874 125.79 31.4588 126.224 30.7288H126.337V31.7535H127.718V26.7709C127.718 25.2306 126.691 24.3198 124.87 24.3198C123.222 24.3198 122.048 25.1235 121.901 26.3758H123.289C123.449 25.8601 124.003 25.5655 124.803 25.5655C125.784 25.5655 126.291 26.0008 126.291 26.7709V27.4004L124.323 27.5143C122.595 27.6214 121.621 28.3782 121.621 29.6908C121.621 31.0235 122.642 31.874 124.043 31.874Z" fill="white"/>
<path d="M132.586 31.874C133.586 31.874 134.433 31.3985 134.867 30.6016H134.98V31.7535H136.355V21.6143H134.92V25.6191H134.814C134.42 24.8154 133.579 24.3399 132.586 24.3399C130.751 24.3399 129.57 25.7999 129.57 28.1036C129.57 30.4141 130.738 31.874 132.586 31.874ZM132.992 25.6324C134.193 25.6324 134.947 26.5901 134.947 28.1103C134.947 29.6372 134.2 30.5815 132.992 30.5815C131.778 30.5815 131.051 29.6506 131.051 28.1036C131.051 26.57 131.785 25.6324 132.992 25.6324Z" fill="white"/>
<path d="M145.655 31.8941C147.777 31.8941 149.077 30.4677 149.077 28.1036C149.077 25.753 147.77 24.3198 145.655 24.3198C143.534 24.3198 142.226 25.753 142.226 28.1036C142.226 30.4677 143.527 31.8941 145.655 31.8941ZM145.655 30.615C144.408 30.615 143.707 29.6975 143.707 28.1036C143.707 26.5231 144.408 25.599 145.655 25.599C146.896 25.599 147.603 26.5231 147.603 28.1036C147.603 29.6908 146.896 30.615 145.655 30.615Z" fill="white"/>
<path d="M150.976 31.7535H152.41V27.4875C152.41 26.349 153.084 25.6391 154.145 25.6391C155.205 25.6391 155.712 26.2218 155.712 27.3938V31.7535H157.147V27.0321C157.147 25.2976 156.253 24.3198 154.632 24.3198C153.538 24.3198 152.817 24.8087 152.464 25.6191H152.357V24.4605H150.976V31.7535Z" fill="white"/>
<path d="M163.752 22.6456V24.494H162.598V25.7061H163.752V29.8248C163.752 31.2311 164.386 31.7937 165.98 31.7937C166.26 31.7937 166.527 31.7602 166.761 31.72V30.5212C166.561 30.5413 166.434 30.5547 166.214 30.5547C165.5 30.5547 165.186 30.2199 165.186 29.4564V25.7061H166.761V24.494H165.186V22.6456H163.752Z" fill="white"/>
<path d="M168.686 31.7535H170.12V27.4942C170.12 26.3892 170.774 25.6458 171.948 25.6458C172.962 25.6458 173.502 26.2352 173.502 27.4004V31.7535H174.937V27.0455C174.937 25.311 173.983 24.3265 172.435 24.3265C171.341 24.3265 170.574 24.8154 170.22 25.6324H170.107V21.6143H168.686V31.7535Z" fill="white"/>
<path d="M180.111 25.5454C181.171 25.5454 181.865 26.2887 181.898 27.4339H178.229C178.309 26.2954 179.05 25.5454 180.111 25.5454ZM181.892 29.7846C181.625 30.3538 181.031 30.6686 180.164 30.6686C179.017 30.6686 178.276 29.8582 178.229 28.5791V28.4988H183.359V27.9965C183.359 25.7061 182.139 24.3198 180.117 24.3198C178.069 24.3198 176.768 25.7999 176.768 28.1304C176.768 30.461 178.043 31.8941 180.124 31.8941C181.785 31.8941 182.946 31.0905 183.273 29.7846H181.892Z" fill="white"/>
</svg>
