<svg width="218" height="70" viewBox="0 0 218 70" fill="none" xmlns="http://www.w3.org/2000/svg">
<path d="M17.3894 35.7993L13.3078 35.7568C12.1457 35.7568 11.2528 35.771 10.6292 35.7993C10.1757 39.7676 9.94897 42.9847 9.94897 45.4507C9.94897 47.9167 10.034 49.6457 10.2041 50.6378C9.29704 50.6944 8.7018 50.7228 8.41836 50.7228C6.80271 50.7228 5.64058 50.4393 4.93197 49.8724C4.22335 49.3056 3.86904 48.3135 3.86904 46.8963C3.86904 45.4507 4.26587 42.0068 5.05952 36.5646C4.15249 36.8481 3.48639 37.089 3.06122 37.2874C3.00453 36.6638 2.97619 36.1962 2.97619 35.8844C2.97619 33.9286 3.86904 32.7098 5.65475 32.2279C6.1933 28.3447 6.51927 24.9859 6.63264 22.1514C5.18707 22.1514 4.26587 21.953 3.86904 21.5562C3.50056 21.1593 3.31632 20.2807 3.31632 18.9201C3.4297 17.6446 3.54308 16.8084 3.65646 16.4116C6.8594 16.8368 10.3741 17.0494 14.2007 17.0494C18.0272 17.0494 21.7262 16.7092 25.2976 16.029C24.9008 19.0051 23.0867 20.7909 19.8554 21.3861C18.098 21.7262 15.5895 21.953 12.3299 22.0664C12.3016 22.4348 11.8906 25.737 11.0969 31.9728C12.7409 32.0295 13.8605 32.0578 14.4558 32.0578C17.1485 32.0578 19.0618 31.5902 20.1956 30.6548C20.2522 31.2217 20.2806 31.6468 20.2806 31.9303C20.2806 34.5097 19.3169 35.7993 17.3894 35.7993ZM37.4375 28.699C35.5951 28.699 33.9511 29.9462 32.5055 32.4405C31.06 34.9065 30.3372 37.3725 30.3372 39.8384C30.3372 44.9972 31.6694 47.5765 34.3338 47.5765C36.2329 47.5765 37.7776 46.3435 38.9681 43.8776C40.1586 41.3832 40.7538 38.5913 40.7538 35.5017C40.7538 30.9666 39.6484 28.699 37.4375 28.699ZM40.0736 25.5953C41.7742 25.5953 43.2198 26.4314 44.4103 28.1038C45.6008 29.7761 46.196 32.0153 46.196 34.8214C46.196 37.9677 45.5582 40.8589 44.2827 43.4949C42.8655 46.4711 40.853 48.5261 38.2453 49.6599C36.7714 50.3118 35.1558 50.6378 33.3984 50.6378C30.9324 50.6378 28.7782 49.6882 26.9358 47.7891C25.1218 45.8617 24.2147 43.1123 24.2147 39.5408C24.2147 35.9411 25.0934 32.7806 26.8508 30.0596C28.6082 27.3101 30.9324 25.5811 33.8236 24.8725C34.1354 24.8725 34.4188 24.9717 34.6739 25.1701C34.9573 25.3402 35.0991 25.5244 35.0991 25.7228C32.2363 27.7069 30.5214 30.4705 29.9545 34.0136C30.5498 32.4263 31.2725 31.0516 32.1229 29.8895C33.0016 28.7274 33.9086 27.8487 34.844 27.2534C36.6297 26.148 38.3729 25.5953 40.0736 25.5953ZM63.6784 28.699C61.836 28.699 60.192 29.9462 58.7465 32.4405C57.3009 34.9065 56.5781 37.3725 56.5781 39.8384C56.5781 44.9972 57.9103 47.5765 60.5747 47.5765C62.4738 47.5765 64.0186 46.3435 65.209 43.8776C66.3995 41.3832 66.9948 38.5913 66.9948 35.5017C66.9948 30.9666 65.8893 28.699 63.6784 28.699ZM66.3145 25.5953C68.0152 25.5953 69.4607 26.4314 70.6512 28.1038C71.8417 29.7761 72.4369 32.0153 72.4369 34.8214C72.4369 37.9677 71.7992 40.8589 70.5237 43.4949C69.1064 46.4711 67.094 48.5261 64.4863 49.6599C63.0123 50.3118 61.3967 50.6378 59.6393 50.6378C57.1733 50.6378 55.0191 49.6882 53.1767 47.7891C51.3627 45.8617 50.4557 43.1123 50.4557 39.5408C50.4557 35.9411 51.3343 32.7806 53.0917 30.0596C54.8491 27.3101 57.1733 25.5811 60.0645 24.8725C60.3763 24.8725 60.6597 24.9717 60.9148 25.1701C61.1983 25.3402 61.34 25.5244 61.34 25.7228C58.4772 27.7069 56.7623 30.4705 56.1954 34.0136C56.7907 32.4263 57.5135 31.0516 58.3638 29.8895C59.2425 28.7274 60.1495 27.8487 61.0849 27.2534C62.8706 26.148 64.6138 25.5953 66.3145 25.5953ZM82.3939 41.4116C82.3939 44.7846 83.4143 46.4711 85.4551 46.4711C86.5322 46.4711 87.5809 45.89 88.6013 44.7279C89.6217 43.5658 90.4437 42.0068 91.0673 40.051C91.7192 38.0953 92.272 36.0119 92.7255 33.801C93.2073 31.5618 93.5616 29.195 93.7884 26.7007C94.1852 21.8821 94.3836 18.1265 94.3836 15.4337C94.3836 12.7126 94.2703 10.6718 94.0435 9.31128C96.0843 9.76479 97.5157 10.7285 98.3377 12.2024C99.1597 13.6764 99.5707 15.5329 99.5707 17.7722C99.5707 20.0114 99.0888 24.178 98.1251 30.2721C97.1898 36.3662 96.7221 40.8163 96.7221 43.6225C96.7221 46.4286 96.8496 48.8095 97.1047 50.7653C95.0923 50.2268 93.7034 49.263 92.9381 47.8742C92.2011 46.4569 91.8326 44.6854 91.8326 42.5595C90.9539 44.9972 89.6359 46.9246 87.8785 48.3418C86.1212 49.7591 84.3071 50.4677 82.4364 50.4677C80.5656 50.4677 79.035 49.7591 77.8445 48.3418C76.6824 46.8963 76.1013 44.7846 76.1013 42.0068C76.1013 37.6134 77.306 33.8436 79.7153 30.6973C82.1246 27.5227 84.9732 25.9354 88.2612 25.9354C89.1966 25.9354 90.6705 26.1622 92.683 26.6157C90.9256 27.0692 89.3525 27.8628 87.9636 28.9966C86.603 30.1021 85.5401 31.3776 84.7748 32.8232C83.1875 35.686 82.3939 38.5488 82.3939 41.4116ZM123.049 20.4507V24.4048H115.183V50H110.336V24.4048H102.428V20.4507H123.049ZM130.424 23.4694C129.545 23.4694 128.808 23.1718 128.213 22.5766C127.618 21.9813 127.32 21.2444 127.32 20.3657C127.32 19.487 127.618 18.75 128.213 18.1548C128.808 17.5596 129.545 17.2619 130.424 17.2619C131.274 17.2619 131.997 17.5596 132.592 18.1548C133.187 18.75 133.485 19.487 133.485 20.3657C133.485 21.2444 133.187 21.9813 132.592 22.5766C131.997 23.1718 131.274 23.4694 130.424 23.4694ZM132.805 26.5732V50H127.958V26.5732H132.805ZM167.527 26.1905C169.369 26.1905 171.013 26.5732 172.459 27.3385C173.933 28.1038 175.081 29.2376 175.903 30.7398C176.753 32.2421 177.178 34.0561 177.178 36.182V50H172.374V36.9048C172.374 34.8073 171.85 33.2058 170.801 32.1004C169.752 30.9666 168.321 30.3997 166.507 30.3997C164.693 30.3997 163.247 30.9666 162.17 32.1004C161.121 33.2058 160.597 34.8073 160.597 36.9048V50H155.792V36.9048C155.792 34.8073 155.268 33.2058 154.219 32.1004C153.171 30.9666 151.739 30.3997 149.925 30.3997C148.111 30.3997 146.665 30.9666 145.588 32.1004C144.54 33.2058 144.015 34.8073 144.015 36.9048V50H139.168V26.5732H144.015V29.2517C144.809 28.288 145.815 27.5369 147.034 26.9983C148.253 26.4598 149.557 26.1905 150.945 26.1905C152.816 26.1905 154.489 26.5873 155.962 27.381C157.436 28.1746 158.57 29.3226 159.364 30.8249C160.072 29.4076 161.178 28.288 162.68 27.466C164.182 26.6157 165.798 26.1905 167.527 26.1905ZM204.817 37.7126C204.817 38.5913 204.76 39.3849 204.647 40.0936H186.747C186.889 41.9643 187.584 43.4666 188.831 44.6003C190.078 45.7341 191.609 46.301 193.423 46.301C196.03 46.301 197.873 45.2098 198.95 43.0272H204.179C203.471 45.1814 202.181 46.953 200.31 48.3418C198.468 49.7024 196.172 50.3827 193.423 50.3827C191.183 50.3827 189.171 49.8866 187.385 48.8946C185.628 47.8742 184.239 46.4569 183.218 44.6429C182.226 42.8005 181.73 40.6746 181.73 38.2653C181.73 35.856 182.212 33.7444 183.176 31.9303C184.168 30.0879 185.543 28.6707 187.3 27.6786C189.086 26.6865 191.127 26.1905 193.423 26.1905C195.633 26.1905 197.603 26.6724 199.332 27.6361C201.061 28.5998 202.408 29.9603 203.372 31.7177C204.335 33.4467 204.817 35.445 204.817 37.7126ZM199.758 36.182C199.729 34.3963 199.091 32.9649 197.844 31.8878C196.597 30.8107 195.052 30.2721 193.21 30.2721C191.538 30.2721 190.106 30.8107 188.916 31.8878C187.725 32.9365 187.017 34.3679 186.79 36.182H199.758Z" fill="white"/>
<path d="M207.727 1.63086H204.766C204.342 1.63086 204 1.97276 204 2.39671V19.3548C204 19.601 204.116 19.8266 204.315 19.9702L214.496 27.3962C214.838 27.6424 215.317 27.574 215.563 27.2321L217.32 24.832V24.8251C217.566 24.4832 217.491 24.0046 217.149 23.7584L208.486 17.4949V2.39671C208.493 1.97276 208.144 1.63086 207.727 1.63086Z" fill="#FF8B00"/>
</svg>
