<svg width="147" height="51" viewBox="0 0 147 51" fill="none" xmlns="http://www.w3.org/2000/svg">
<path d="M11.593 27.9169L8.87187 27.8885C8.09712 27.8885 7.50188 27.898 7.08616 27.9169C6.78382 30.5624 6.63265 32.7071 6.63265 34.3511C6.63265 35.9951 6.68934 37.1478 6.80271 37.8092C6.19803 37.847 5.8012 37.8659 5.61224 37.8659C4.53514 37.8659 3.76039 37.6769 3.28798 37.299C2.81557 36.921 2.57936 36.2597 2.57936 35.3148C2.57936 34.3511 2.84391 32.0552 3.37301 28.4271C2.76833 28.6161 2.32426 28.7767 2.04081 28.909C2.00302 28.4932 1.98412 28.1814 1.98412 27.9736C1.98412 26.6697 2.57936 25.8572 3.76984 25.5359C4.12887 22.9471 4.34618 20.7079 4.42176 18.8183C3.45805 18.8183 2.84391 18.686 2.57936 18.4214C2.33371 18.1569 2.21088 17.5711 2.21088 16.6641C2.28647 15.8137 2.36205 15.2563 2.43764 14.9917C4.57294 15.2752 6.91609 15.4169 9.46711 15.4169C12.0181 15.4169 14.4841 15.1901 16.8651 14.7366C16.6005 16.7208 15.3911 17.9112 13.2369 18.3081C12.0654 18.5348 10.393 18.686 8.21995 18.7616C8.20105 19.0072 7.92705 21.2087 7.39795 25.3659C8.49394 25.4037 9.24035 25.4226 9.63718 25.4226C11.4323 25.4226 12.7078 25.1108 13.4637 24.4872C13.5015 24.8651 13.5204 25.1486 13.5204 25.3375C13.5204 27.0571 12.8779 27.9169 11.593 27.9169ZM24.9583 23.1833C23.7301 23.1833 22.6341 24.0148 21.6704 25.6777C20.7066 27.3217 20.2248 28.9656 20.2248 30.6096C20.2248 34.0488 21.1129 35.7684 22.8892 35.7684C24.1552 35.7684 25.1851 34.9464 25.9788 33.3024C26.7724 31.6395 27.1692 29.7782 27.1692 27.7185C27.1692 24.695 26.4323 23.1833 24.9583 23.1833ZM26.7157 21.1142C27.8495 21.1142 28.8132 21.6716 29.6069 22.7865C30.4005 23.9014 30.7973 25.3942 30.7973 27.265C30.7973 29.3625 30.3722 31.2899 29.5218 33.0473C28.577 35.0314 27.2354 36.4014 25.4969 37.1572C24.5143 37.5919 23.4372 37.8092 22.2656 37.8092C20.6216 37.8092 19.1855 37.1761 17.9572 35.9101C16.7478 34.6251 16.1432 32.7922 16.1432 30.4112C16.1432 28.0114 16.7289 25.9044 17.9005 24.0904C19.0721 22.2574 20.6216 21.1047 22.549 20.6323C22.7569 20.6323 22.9459 20.6985 23.1159 20.8307C23.3049 20.9441 23.3994 21.0669 23.3994 21.1992C21.4908 22.522 20.3476 24.3644 19.9697 26.7264C20.3665 25.6682 20.8484 24.7517 21.4153 23.977C22.0011 23.2022 22.6057 22.6164 23.2293 22.2196C24.4198 21.4827 25.5819 21.1142 26.7157 21.1142ZM42.4523 23.1833C41.224 23.1833 40.128 24.0148 39.1643 25.6777C38.2006 27.3217 37.7187 28.9656 37.7187 30.6096C37.7187 34.0488 38.6069 35.7684 40.3831 35.7684C41.6492 35.7684 42.6791 34.9464 43.4727 33.3024C44.2664 31.6395 44.6632 29.7782 44.6632 27.7185C44.6632 24.695 43.9262 23.1833 42.4523 23.1833ZM44.2097 21.1142C45.3435 21.1142 46.3072 21.6716 47.1008 22.7865C47.8945 23.9014 48.2913 25.3942 48.2913 27.265C48.2913 29.3625 47.8661 31.2899 47.0158 33.0473C46.071 35.0314 44.7293 36.4014 42.9909 37.1572C42.0082 37.5919 40.9311 37.8092 39.7596 37.8092C38.1156 37.8092 36.6794 37.1761 35.4512 35.9101C34.2418 34.6251 33.6371 32.7922 33.6371 30.4112C33.6371 28.0114 34.2229 25.9044 35.3945 24.0904C36.5661 22.2574 38.1156 21.1047 40.043 20.6323C40.2509 20.6323 40.4398 20.6985 40.6099 20.8307C40.7989 20.9441 40.8933 21.0669 40.8933 21.1992C38.9848 22.522 37.8416 24.3644 37.4636 26.7264C37.8605 25.6682 38.3423 24.7517 38.9092 23.977C39.495 23.2022 40.0997 22.6164 40.7233 22.2196C41.9138 21.4827 43.0759 21.1142 44.2097 21.1142ZM54.9293 31.6584C54.9293 33.9071 55.6095 35.0314 56.9701 35.0314C57.6881 35.0314 58.3873 34.644 59.0676 33.8693C59.7478 33.0945 60.2958 32.0552 60.7116 30.7514C61.1462 29.4475 61.5147 28.0586 61.817 26.5847C62.1382 25.0919 62.3745 23.514 62.5256 21.8511C62.7902 18.6387 62.9224 16.135 62.9224 14.3398C62.9224 12.5258 62.8469 11.1652 62.6957 10.2582C64.0562 10.5605 65.0105 11.203 65.5585 12.1856C66.1065 13.1682 66.3805 14.4059 66.3805 15.8988C66.3805 17.3916 66.0593 20.1694 65.4168 24.2321C64.7932 28.2948 64.4814 31.2616 64.4814 33.1323C64.4814 35.0031 64.5664 36.5904 64.7365 37.8942C63.3949 37.5352 62.4689 36.8927 61.9587 35.9668C61.4674 35.0219 61.2218 33.8409 61.2218 32.4237C60.636 34.0488 59.7573 35.3337 58.5857 36.2786C57.4141 37.2234 56.2048 37.6958 54.9576 37.6958C53.7104 37.6958 52.69 37.2234 51.8964 36.2786C51.1216 35.3148 50.7343 33.9071 50.7343 32.0552C50.7343 29.1263 51.5373 26.613 53.1435 24.5155C54.7497 22.3991 56.6488 21.3409 58.8408 21.3409C59.4644 21.3409 60.447 21.4921 61.7887 21.7944C60.6171 22.0968 59.5683 22.6259 58.6424 23.3817C57.7354 24.1187 57.0268 24.969 56.5166 25.9328C55.4584 27.8413 54.9293 29.7498 54.9293 31.6584ZM82.0327 17.6845V20.3205H76.789V37.384H73.5577V20.3205H68.2856V17.6845H82.0327ZM86.9492 19.6969C86.3634 19.6969 85.8721 19.4985 85.4753 19.1017C85.0784 18.7049 84.88 18.2136 84.88 17.6278C84.88 17.042 85.0784 16.5507 85.4753 16.1539C85.8721 15.757 86.3634 15.5586 86.9492 15.5586C87.5161 15.5586 87.9979 15.757 88.3948 16.1539C88.7916 16.5507 88.99 17.042 88.99 17.6278C88.99 18.2136 88.7916 18.7049 88.3948 19.1017C87.9979 19.4985 87.5161 19.6969 86.9492 19.6969ZM88.5365 21.7661V37.384H85.3052V21.7661H88.5365ZM111.685 21.511C112.913 21.511 114.009 21.7661 114.973 22.2763C115.955 22.7865 116.721 23.5424 117.269 24.5439C117.836 25.5454 118.119 26.7548 118.119 28.172V37.384H114.916V28.6539C114.916 27.2555 114.566 26.1879 113.867 25.4509C113.168 24.6951 112.214 24.3171 111.004 24.3171C109.795 24.3171 108.831 24.6951 108.113 25.4509C107.414 26.1879 107.065 27.2555 107.065 28.6539V37.384H103.862V28.6539C103.862 27.2555 103.512 26.1879 102.813 25.4509C102.114 24.6951 101.159 24.3171 99.9501 24.3171C98.7407 24.3171 97.777 24.6951 97.0589 25.4509C96.3598 26.1879 96.0102 27.2555 96.0102 28.6539V37.384H92.7789V21.7661H96.0102V23.5518C96.5393 22.9093 97.2101 22.4086 98.0226 22.0496C98.8352 21.6905 99.7044 21.511 100.63 21.511C101.878 21.511 102.992 21.7756 103.975 22.3047C104.958 22.8338 105.713 23.5991 106.243 24.6006C106.715 23.6557 107.452 22.9093 108.453 22.3613C109.455 21.7944 110.532 21.511 111.685 21.511ZM136.545 29.1924C136.545 29.7782 136.507 30.3073 136.431 30.7797H124.498C124.593 32.0269 125.056 33.0284 125.887 33.7842C126.719 34.5401 127.739 34.918 128.948 34.918C130.687 34.918 131.915 34.1905 132.633 32.7355H136.12C135.647 34.1716 134.787 35.3526 133.54 36.2786C132.312 37.1856 130.781 37.6391 128.948 37.6391C127.456 37.6391 126.114 37.3084 124.923 36.647C123.752 35.9668 122.826 35.0219 122.146 33.8126C121.484 32.5843 121.154 31.1671 121.154 29.5609C121.154 27.9547 121.475 26.5469 122.117 25.3375C122.779 24.1093 123.695 23.1644 124.867 22.5031C126.057 21.8417 127.418 21.511 128.948 21.511C130.422 21.511 131.736 21.8322 132.888 22.4747C134.041 23.1172 134.939 24.0242 135.581 25.1958C136.224 26.3485 136.545 27.6807 136.545 29.1924ZM133.172 28.172C133.153 26.9815 132.728 26.0272 131.896 25.3092C131.065 24.5911 130.035 24.2321 128.807 24.2321C127.692 24.2321 126.738 24.5911 125.944 25.3092C125.15 26.0084 124.678 26.9626 124.527 28.172H133.172Z" fill="#396C03"/>
<path d="M140.508 0.138031H138.534C138.251 0.138031 138.023 0.365963 138.023 0.648598V11.954C138.023 12.1181 138.101 12.2685 138.233 12.3643L145.021 17.3149C145.249 17.4791 145.568 17.4335 145.732 17.2055L146.904 15.6055V15.6009C147.068 15.373 147.018 15.0539 146.79 14.8898L141.014 10.714V0.648598C141.018 0.365963 140.786 0.138031 140.508 0.138031Z" fill="#FF8B00"/>
</svg>
