<svg width="20" height="21" viewBox="0 0 20 21" fill="none" xmlns="http://www.w3.org/2000/svg">
<path d="M19 19.0943L13 13.0943M15 8.09435C15 9.0136 14.8189 9.92385 14.4672 10.7731C14.1154 11.6224 13.5998 12.3941 12.9497 13.0441C12.2997 13.6941 11.5281 14.2097 10.6788 14.5615C9.82951 14.9133 8.91925 15.0943 8 15.0943C7.08075 15.0943 6.1705 14.9133 5.32122 14.5615C4.47194 14.2097 3.70026 13.6941 3.05025 13.0441C2.40024 12.3941 1.88463 11.6224 1.53284 10.7731C1.18106 9.92385 1 9.0136 1 8.09435C1 6.23783 1.7375 4.45735 3.05025 3.1446C4.36301 1.83184 6.14348 1.09435 8 1.09435C9.85652 1.09435 11.637 1.83184 12.9497 3.1446C14.2625 4.45735 15 6.23783 15 8.09435Z" stroke="white" stroke-width="2" stroke-linecap="round" stroke-linejoin="round"/>
</svg>
